# xmcd
#
# Track frame offsets: 
#        183
#        23618
#        42983
#        67048
#        88205
#        101108
#        112908
#        134155
#        155135
#        171163
#        189950
#        210208
#        222278
#        242548
#        260460
#        282583
#        304043
#        336645
#
# Disc length: 4724 seconds
#
# Revision: 2
# Processed by: cddbd v1.5.2PL0 Copyright (c) Steve Scherf et al.
# Submitted via: ExactAudioCopy v0.95b3
#
DISCID=10127212
DTITLE=Joe Cocker - The Absolute Best ( 1968 - 1974)
DYEAR=1994
DGENRE=
TTITLE0=with a little help from my friends
TTITLE1=feeling alright
TTITLE2=just like a woman
TTITLE3=don't let me be misunderstood
TTITLE4=delta lady
TTITLE5=she came in through the bathroom window
TTITLE6=darling be home soon
TTITLE7=hitchcock railway
TTITLE8=something
TTITLE9=the letter
TTITLE10=high time we went
TTITLE11=you are so beautiful
TTITLE12=honky tonk women
TTITLE13=cry me a river
TTITLE14=space captain
TTITLE15=midnight rider
TTITLE16=st. james infirmary
TTITLE17=early in the mornin'
EXTD=
EXTT0=
EXTT1=
EXTT2=
EXTT3=
EXTT4=
EXTT5=
EXTT6=
EXTT7=
EXTT8=
EXTT9=
EXTT10=
EXTT11=
EXTT12=
EXTT13=
EXTT14=
EXTT15=
EXTT16=
EXTT17=
PLAYORDER=
